<?xml version="1.0" encoding="UTF-8"?>
<svg version="1.1" xmlns="http://www.w3.org/2000/svg" width="512" height="512">
<path d="M0 0 C5.98349584 4.36134941 11.11745566 9.40902806 16.32400513 14.65731621 C17.30011201 15.6339884 18.2766618 16.61021811 19.25361633 17.5860424 C21.88358716 20.21544337 24.50737949 22.85093015 27.13004303 25.48761702 C29.87972459 28.24986755 32.63513504 31.00639173 35.3899231 33.7635479 C40.59629055 38.97611209 45.7975421 44.19374984 50.99694061 49.41326439 C56.92048309 55.35922231 62.84975876 61.29944913 68.77950478 67.23921943 C80.9686632 79.4492389 93.15066129 91.66637758 105.32791138 103.88827324 C108.73438855 102.41760208 110.92712545 100.52404666 113.52456665 97.89175224 C114.35413879 97.05625847 115.18371094 96.22076469 116.03842163 95.35995293 C117.39118195 93.98226738 117.39118195 93.98226738 118.77127075 92.5767498 C119.73712194 91.60050786 120.70346352 90.62475088 121.67025757 89.64944267 C123.75071699 87.5491143 125.82821782 85.44591748 127.90364075 83.34061241 C131.19330944 80.0047186 134.49281397 76.67867262 137.79434204 73.3545208 C147.18141326 63.90067553 156.56034111 54.43886373 165.91775513 44.95565605 C171.08664578 39.71744539 176.26640856 34.49024022 181.45823526 29.27475905 C184.20116761 26.51835433 186.93823938 23.75665427 189.66181946 20.98111534 C192.22947715 18.3644785 194.81115116 15.76249807 197.40364838 13.17047691 C198.79039973 11.77667095 200.1621501 10.36798836 201.53317261 8.95870781 C209.53724234 1.00496267 218.83934083 -5.10100093 230.39041138 -5.42422676 C239.06894625 -5.33153213 248.05230078 -2.29296728 254.32791138 3.88827324 C260.75492455 11.68273602 264.01134215 19.92633865 263.67166138 30.06014824 C261.95793476 44.15944453 252.17726503 53.34375021 242.53713989 62.9060955 C241.57017216 63.87249766 240.60364743 64.83934326 239.63752747 65.80659294 C237.03917564 68.40551358 234.43474796 70.99826418 231.82910275 73.58986974 C229.0975457 76.30883997 226.37173209 79.03355632 223.64527893 81.75764275 C218.49295763 86.90377248 213.33556405 92.04478699 208.17628378 97.18393892 C202.29800792 103.03978306 196.42547738 108.90137467 190.55339921 114.76343262 C178.4845741 126.81140842 166.40862933 138.85222286 154.32791138 150.88827324 C155.79858254 154.29475041 157.69213796 156.48748731 160.32443237 159.08492851 C161.15992615 159.91450066 161.99541992 160.7440728 162.85623169 161.59878349 C163.77468872 162.5006237 164.69314575 163.40246391 165.63943481 164.33163261 C166.61567676 165.2974838 167.59143373 166.26382538 168.56674194 167.23061943 C170.66707031 169.31107885 172.77026713 171.38857968 174.8755722 173.46400261 C178.21146602 176.7536713 181.53751199 180.05317583 184.86166382 183.3547039 C194.31550909 192.74177512 203.77732089 202.12070297 213.26052856 211.47811699 C218.49873922 216.64700764 223.72594439 221.82677042 228.94142556 227.01859713 C231.69783028 229.76152947 234.45953034 232.49860124 237.23506927 235.22218132 C239.85170612 237.78983901 242.45368655 240.37151302 245.0457077 242.96401024 C246.43951367 244.35076159 247.84819626 245.72251197 249.25747681 247.09353447 C257.21122195 255.0976042 263.31718554 264.39970269 263.64041138 275.95077324 C263.54771675 284.62930812 260.50915189 293.61266264 254.32791138 299.88827324 C246.53074125 306.31751878 238.29484784 309.56194742 228.15994263 309.23592949 C214.42572348 307.54993569 205.65533124 298.5174865 196.33181763 289.11923027 C195.35571074 288.14255808 194.37916096 287.16632837 193.40220642 286.19050407 C190.77223559 283.56110311 188.14844326 280.92561633 185.52577972 278.28892946 C182.77609816 275.52667892 180.02068771 272.77015475 177.26589966 270.01299858 C172.0595322 264.80043438 166.85828066 259.58279664 161.65888214 254.36328208 C155.73533967 248.41732417 149.80606399 242.47709735 143.87631798 236.53732705 C131.68715955 224.32730757 119.50516147 212.1101689 107.32791138 199.88827324 C103.93897346 201.35470711 101.74563114 203.2314071 99.15576172 205.84683037 C98.33171341 206.67390999 97.5076651 207.50098961 96.65864563 208.35313225 C95.76301407 209.26223854 94.86738251 210.17134483 93.9446106 211.1079998 C92.98535042 212.07437528 92.02561632 213.04028052 91.06544495 214.00575066 C88.99960509 216.08468352 86.93681911 218.16658372 84.87624741 220.25073814 C81.61146342 223.5521746 78.33793915 226.84484996 75.06280518 230.13601494 C65.75105005 239.49601484 56.45099975 248.8675922 47.15994263 258.24813652 C42.02754813 263.42980833 36.88784884 268.60412465 31.74037755 273.77082038 C28.48999407 277.03421503 25.24879592 280.30637533 22.01430964 283.58552313 C19.98917696 285.63430241 17.95554981 287.67448859 15.91955757 289.71247101 C14.54298588 291.09530977 13.17644312 292.48811004 11.81034851 293.88129997 C3.24701401 302.4180745 -5.52541352 308.70217903 -17.92208862 309.26327324 C-26.51274697 309.08626792 -35.46509815 306.00192551 -41.67208862 299.88827324 C-48.10133417 292.09110311 -51.3457628 283.85520971 -51.01974487 273.72030449 C-49.33375107 259.98608535 -40.30130188 251.2156931 -30.90304565 241.89217949 C-29.92637346 240.9160726 -28.95014375 239.93952282 -27.97431946 238.96256828 C-25.34491849 236.33259746 -22.70943171 233.70880513 -20.07274485 231.08614159 C-17.31049431 228.33646002 -14.55397014 225.58104957 -11.79681396 222.82626152 C-6.58424977 217.61989406 -1.36661202 212.41864252 3.85290253 207.219244 C9.79886045 201.29570153 15.73908727 195.36642585 21.67885756 189.43667984 C33.88887704 177.24752141 46.10601572 165.06552333 58.32791138 152.88827324 C56.86147751 149.49933533 54.98477752 147.305993 52.36935425 144.71612358 C51.54227463 143.89207527 50.71519501 143.06802696 49.86305237 142.21900749 C48.95394608 141.32337593 48.04483978 140.42774437 47.10818481 139.50497246 C46.14180934 138.54571228 45.1759041 137.58597818 44.21043396 136.62580681 C42.13150109 134.55996696 40.0496009 132.49718097 37.96544647 130.43660927 C34.66401001 127.17182528 31.37133466 123.89830101 28.08016968 120.62316704 C18.72016978 111.31141191 9.34859242 102.01136161 -0.0319519 92.72030449 C-5.21362371 87.58790999 -10.38794003 82.4482107 -15.55463576 77.30073941 C-18.81803041 74.05035593 -22.09019071 70.80915778 -25.36933851 67.57467151 C-27.4181178 65.54953882 -29.45830397 63.51591167 -31.49628639 61.47991943 C-32.87912516 60.10334774 -34.27192543 58.73680498 -35.66511536 57.37071037 C-44.20188989 48.80737587 -50.48599442 40.03494834 -51.04708862 27.63827324 C-50.8700833 19.0476149 -47.7857409 10.09526372 -41.67208862 3.88827324 C-29.60275651 -6.06363218 -13.63020999 -9.06236009 0 0 Z " fill="#000000" transform="translate(149.67208862304688,104.11172676086426)"/>
</svg>
