<?xml version="1.0" encoding="UTF-8"?>
<svg version="1.1" xmlns="http://www.w3.org/2000/svg" width="512" height="512">
<path d="M0 0 C1.28766887 -0.00644889 2.57533775 -0.01289778 3.90202689 -0.0195421 C5.3238159 -0.01660006 6.74560452 -0.01346465 8.16739273 -0.01015663 C9.68337297 -0.01389415 11.19935129 -0.01849608 12.71532655 -0.02388728 C16.8782656 -0.03612025 21.04112431 -0.03585646 25.20407724 -0.03349853 C29.69501515 -0.03309043 34.18592728 -0.04412882 38.67685318 -0.05361366 C47.47458816 -0.07022647 56.27229633 -0.07572334 65.07004568 -0.07683842 C72.2218045 -0.0777888 79.37355449 -0.08189859 86.52531052 -0.08823967 C106.80341994 -0.10585316 127.08150819 -0.11507842 147.35962531 -0.11357872 C148.99941739 -0.11345885 148.99941739 -0.11345885 150.67233658 -0.11333656 C151.7668667 -0.1132548 152.86139682 -0.11317304 153.98909453 -0.1130888 C171.72614252 -0.11227596 189.46310558 -0.13141287 207.200129 -0.1596133 C225.41391317 -0.18834313 243.62765592 -0.20215352 261.84146333 -0.20042574 C272.06649375 -0.19976186 282.29143515 -0.20525353 292.51644516 -0.22678185 C301.22267041 -0.24499496 309.92876629 -0.24933991 318.63500234 -0.235763 C323.07575781 -0.22923391 327.51626508 -0.22911396 331.95699692 -0.2464695 C336.02589585 -0.26220802 340.09434994 -0.2593288 344.16323808 -0.24190123 C345.63160039 -0.23883303 347.09999597 -0.24245699 348.56831905 -0.25362138 C359.5036078 -0.33123072 368.76435374 0.85189718 377.01120377 8.55414391 C384.40486668 16.77770775 386.12435443 25.49172525 385.85495377 36.26898766 C385.38062742 44.65468221 381.76775853 51.6602059 375.54245377 57.25726891 C369.19576494 62.0299789 363.11557703 64.50434683 355.08490753 64.51453781 C353.79723866 64.5209867 352.50956978 64.5274356 351.18288064 64.53407991 C349.76109163 64.53113787 348.33930301 64.52800246 346.9175148 64.52469444 C345.40153456 64.52843196 343.88555625 64.53303389 342.36958098 64.53842509 C338.20664193 64.55065806 334.04378322 64.55039427 329.88083029 64.54803634 C325.38989238 64.54762824 320.89898025 64.55866663 316.40805435 64.56815147 C307.61031938 64.58476428 298.8126112 64.59026116 290.01486185 64.59137623 C282.86310303 64.59232661 275.71135304 64.5964364 268.55959702 64.60277748 C248.2814876 64.62039097 228.00339935 64.62961623 207.72528222 64.62811653 C206.6320875 64.62803662 205.53889278 64.62795671 204.41257095 64.62787437 C203.31804083 64.62779261 202.22351071 64.62771085 201.09581301 64.62762661 C183.35876501 64.62681377 165.62180196 64.64595068 147.88477853 64.67415111 C129.67099436 64.70288094 111.45725161 64.71669133 93.2434442 64.71496356 C83.01841378 64.71429967 72.79347238 64.71979134 62.56846237 64.74131966 C53.86223712 64.75953278 45.15614124 64.76387773 36.44990519 64.75030081 C32.00914972 64.74377172 27.56864246 64.74365177 23.12791061 64.76100731 C19.05901168 64.77674584 14.99055759 64.77386661 10.92166945 64.75643905 C9.45330714 64.75337084 7.98491156 64.7569948 6.51658848 64.7681592 C-4.41870027 64.84576853 -13.67944621 63.66264063 -21.92629623 55.96039391 C-29.31995914 47.73683006 -31.0394469 39.02281256 -30.77004623 28.24555016 C-30.29571989 19.8598556 -26.682851 12.85433191 -20.45754623 7.25726891 C-14.11085741 2.48455891 -8.0306695 0.01019099 0 0 Z " fill="#000000" transform="translate(78.45754623413086,319.74273109436035)"/>
<path d="M0 0 C1.28766887 -0.00644889 2.57533775 -0.01289778 3.90202689 -0.0195421 C5.3238159 -0.01660006 6.74560452 -0.01346465 8.16739273 -0.01015663 C9.68337297 -0.01389415 11.19935129 -0.01849608 12.71532655 -0.02388728 C16.8782656 -0.03612025 21.04112431 -0.03585646 25.20407724 -0.03349853 C29.69501515 -0.03309043 34.18592728 -0.04412882 38.67685318 -0.05361366 C47.47458816 -0.07022647 56.27229633 -0.07572334 65.07004568 -0.07683842 C72.2218045 -0.0777888 79.37355449 -0.08189859 86.52531052 -0.08823967 C106.80341994 -0.10585316 127.08150819 -0.11507842 147.35962531 -0.11357872 C148.99941739 -0.11345885 148.99941739 -0.11345885 150.67233658 -0.11333656 C151.7668667 -0.1132548 152.86139682 -0.11317304 153.98909453 -0.1130888 C171.72614252 -0.11227596 189.46310558 -0.13141287 207.200129 -0.1596133 C225.41391317 -0.18834313 243.62765592 -0.20215352 261.84146333 -0.20042574 C272.06649375 -0.19976186 282.29143515 -0.20525353 292.51644516 -0.22678185 C301.22267041 -0.24499496 309.92876629 -0.24933991 318.63500234 -0.235763 C323.07575781 -0.22923391 327.51626508 -0.22911396 331.95699692 -0.2464695 C336.02589585 -0.26220802 340.09434994 -0.2593288 344.16323808 -0.24190123 C345.63160039 -0.23883303 347.09999597 -0.24245699 348.56831905 -0.25362138 C359.5036078 -0.33123072 368.76435374 0.85189718 377.01120377 8.55414391 C384.40486668 16.77770775 386.12435443 25.49172525 385.85495377 36.26898766 C385.38062742 44.65468221 381.76775853 51.6602059 375.54245377 57.25726891 C369.19576494 62.0299789 363.11557703 64.50434683 355.08490753 64.51453781 C353.79723866 64.5209867 352.50956978 64.5274356 351.18288064 64.53407991 C349.76109163 64.53113787 348.33930301 64.52800246 346.9175148 64.52469444 C345.40153456 64.52843196 343.88555625 64.53303389 342.36958098 64.53842509 C338.20664193 64.55065806 334.04378322 64.55039427 329.88083029 64.54803634 C325.38989238 64.54762824 320.89898025 64.55866663 316.40805435 64.56815147 C307.61031938 64.58476428 298.8126112 64.59026116 290.01486185 64.59137623 C282.86310303 64.59232661 275.71135304 64.5964364 268.55959702 64.60277748 C248.2814876 64.62039097 228.00339935 64.62961623 207.72528222 64.62811653 C206.6320875 64.62803662 205.53889278 64.62795671 204.41257095 64.62787437 C203.31804083 64.62779261 202.22351071 64.62771085 201.09581301 64.62762661 C183.35876501 64.62681377 165.62180196 64.64595068 147.88477853 64.67415111 C129.67099436 64.70288094 111.45725161 64.71669133 93.2434442 64.71496356 C83.01841378 64.71429967 72.79347238 64.71979134 62.56846237 64.74131966 C53.86223712 64.75953278 45.15614124 64.76387773 36.44990519 64.75030081 C32.00914972 64.74377172 27.56864246 64.74365177 23.12791061 64.76100731 C19.05901168 64.77674584 14.99055759 64.77386661 10.92166945 64.75643905 C9.45330714 64.75337084 7.98491156 64.7569948 6.51658848 64.7681592 C-4.41870027 64.84576853 -13.67944621 63.66264063 -21.92629623 55.96039391 C-29.31995914 47.73683006 -31.0394469 39.02281256 -30.77004623 28.24555016 C-30.29571989 19.8598556 -26.682851 12.85433191 -20.45754623 7.25726891 C-14.11085741 2.48455891 -8.0306695 0.01019099 0 0 Z " fill="#000000" transform="translate(78.45754623413086,223.74273109436035)"/>
<path d="M0 0 C1.28766887 -0.00644889 2.57533775 -0.01289778 3.90202689 -0.0195421 C5.3238159 -0.01660006 6.74560452 -0.01346465 8.16739273 -0.01015663 C9.68337297 -0.01389415 11.19935129 -0.01849608 12.71532655 -0.02388728 C16.8782656 -0.03612025 21.04112431 -0.03585646 25.20407724 -0.03349853 C29.69501515 -0.03309043 34.18592728 -0.04412882 38.67685318 -0.05361366 C47.47458816 -0.07022647 56.27229633 -0.07572334 65.07004568 -0.07683842 C72.2218045 -0.0777888 79.37355449 -0.08189859 86.52531052 -0.08823967 C106.80341994 -0.10585316 127.08150819 -0.11507842 147.35962531 -0.11357872 C148.99941739 -0.11345885 148.99941739 -0.11345885 150.67233658 -0.11333656 C151.7668667 -0.1132548 152.86139682 -0.11317304 153.98909453 -0.1130888 C171.72614252 -0.11227596 189.46310558 -0.13141287 207.200129 -0.1596133 C225.41391317 -0.18834313 243.62765592 -0.20215352 261.84146333 -0.20042574 C272.06649375 -0.19976186 282.29143515 -0.20525353 292.51644516 -0.22678185 C301.22267041 -0.24499496 309.92876629 -0.24933991 318.63500234 -0.235763 C323.07575781 -0.22923391 327.51626508 -0.22911396 331.95699692 -0.2464695 C336.02589585 -0.26220802 340.09434994 -0.2593288 344.16323808 -0.24190123 C345.63160039 -0.23883303 347.09999597 -0.24245699 348.56831905 -0.25362138 C359.5036078 -0.33123072 368.76435374 0.85189718 377.01120377 8.55414391 C384.40486668 16.77770775 386.12435443 25.49172525 385.85495377 36.26898766 C385.38062742 44.65468221 381.76775853 51.6602059 375.54245377 57.25726891 C369.19576494 62.0299789 363.11557703 64.50434683 355.08490753 64.51453781 C353.79723866 64.5209867 352.50956978 64.5274356 351.18288064 64.53407991 C349.76109163 64.53113787 348.33930301 64.52800246 346.9175148 64.52469444 C345.40153456 64.52843196 343.88555625 64.53303389 342.36958098 64.53842509 C338.20664193 64.55065806 334.04378322 64.55039427 329.88083029 64.54803634 C325.38989238 64.54762824 320.89898025 64.55866663 316.40805435 64.56815147 C307.61031938 64.58476428 298.8126112 64.59026116 290.01486185 64.59137623 C282.86310303 64.59232661 275.71135304 64.5964364 268.55959702 64.60277748 C248.2814876 64.62039097 228.00339935 64.62961623 207.72528222 64.62811653 C206.6320875 64.62803662 205.53889278 64.62795671 204.41257095 64.62787437 C203.31804083 64.62779261 202.22351071 64.62771085 201.09581301 64.62762661 C183.35876501 64.62681377 165.62180196 64.64595068 147.88477853 64.67415111 C129.67099436 64.70288094 111.45725161 64.71669133 93.2434442 64.71496356 C83.01841378 64.71429967 72.79347238 64.71979134 62.56846237 64.74131966 C53.86223712 64.75953278 45.15614124 64.76387773 36.44990519 64.75030081 C32.00914972 64.74377172 27.56864246 64.74365177 23.12791061 64.76100731 C19.05901168 64.77674584 14.99055759 64.77386661 10.92166945 64.75643905 C9.45330714 64.75337084 7.98491156 64.7569948 6.51658848 64.7681592 C-4.41870027 64.84576853 -13.67944621 63.66264063 -21.92629623 55.96039391 C-29.31995914 47.73683006 -31.0394469 39.02281256 -30.77004623 28.24555016 C-30.29571989 19.8598556 -26.682851 12.85433191 -20.45754623 7.25726891 C-14.11085741 2.48455891 -8.0306695 0.01019099 0 0 Z " fill="#000000" transform="translate(78.45754623413086,127.74273109436035)"/>
</svg>
